<?xml version="1.0" standalone="no"?>
<!DOCTYPE svg PUBLIC "-//W3C//DTD SVG 20010904//EN"
 "http://www.w3.org/TR/2001/REC-SVG-20010904/DTD/svg10.dtd">
<svg version="1.0" xmlns="http://www.w3.org/2000/svg"
 width="468.000000pt" height="429.000000pt" viewBox="0 0 468.000000 429.000000"
 preserveAspectRatio="xMidYMid meet">

<g transform="translate(0.000000,429.000000) scale(0.100000,-0.100000)"
fill="#000000" stroke="none">
<path d="M2003 4246 c-33 -25 -70 -57 -81 -73 -11 -16 -61 -66 -111 -111 -80
-73 -93 -82 -111 -72 -11 6 -18 15 -15 21 9 14 -32 11 -63 -5 -32 -17 -77 -65
-116 -123 -16 -24 -31 -41 -35 -39 -7 5 -93 -117 -105 -148 -4 -13 0 -23 14
-33 22 -16 26 -49 10 -102 -10 -36 -19 -44 -97 -97 -90 -59 -129 -136 -138
-270 -5 -72 -31 -137 -97 -237 -21 -32 -38 -62 -38 -67 0 -5 -11 -22 -25 -38
-21 -25 -8 -19 66 30 50 33 93 58 95 55 2 -2 -14 -28 -37 -58 -66 -88 -66 -97
1 -25 35 36 65 64 68 62 2 -3 -16 -40 -41 -82 -66 -110 -76 -226 -28 -325 12
-24 21 -48 21 -55 0 -32 -111 -46 -224 -28 -53 9 -44 -15 15 -38 34 -14 68
-17 148 -15 l104 2 24 -44 c36 -70 72 -110 101 -117 56 -14 68 -38 22 -47 -40
-9 -57 -46 -71 -158 -14 -117 -9 -164 25 -228 14 -28 26 -62 26 -75 0 -40 36
-144 62 -179 14 -18 27 -40 31 -49 3 -10 14 -18 24 -18 10 0 24 -14 33 -33 8
-17 27 -39 42 -47 25 -13 30 -13 57 3 36 21 35 22 56 -114 9 -59 26 -125 42
-162 l28 -62 0 -361 0 -362 -45 -65 c-25 -36 -46 -60 -48 -52 -2 8 -17 13 -39
13 -28 0 -45 -9 -78 -39 -31 -28 -51 -39 -74 -39 -31 0 -81 -40 -145 -117
l-19 -23 567 0 567 0 -3 28 c-3 23 0 27 21 24 22 -2 21 1 -17 42 -22 24 -46
63 -53 87 l-13 42 49 44 c28 24 75 60 105 80 30 21 60 42 65 48 6 7 25 22 43
34 34 24 42 41 18 41 -18 0 -14 29 5 41 10 6 3 9 -22 9 -21 0 -42 7 -49 15 -7
9 -32 25 -55 35 -23 10 -48 26 -55 35 -19 23 -40 1 -40 -42 0 -37 -22 -43 -25
-6 -1 11 -12 31 -24 44 -37 39 -63 130 -41 144 5 3 10 18 10 32 0 26 2 26 -66
7 -16 -4 -23 0 -27 15 -6 26 0 31 40 31 19 0 43 5 54 11 28 14 114 18 167 8
62 -13 92 -3 92 31 0 15 -6 33 -14 40 -8 6 -13 17 -10 25 6 15 -10 21 -81 31
-27 3 -61 13 -75 22 -14 9 -29 15 -34 14 -4 -2 0 12 11 30 12 21 28 34 44 35
70 6 96 10 116 17 13 4 30 3 40 -2 12 -8 20 -6 29 6 10 14 16 14 61 -5 30 -12
56 -18 64 -13 7 5 25 6 39 4 17 -4 31 1 43 13 16 19 16 21 -12 47 -18 17 -31
24 -35 17 -13 -20 -36 -11 -98 40 -91 73 -113 83 -157 71 -74 -22 -90 -23
-128 -2 -21 11 -43 20 -50 20 -7 0 -13 1 -13 3 1 1 9 27 20 57 16 46 22 54 40
52 13 -2 32 6 46 19 22 21 23 24 8 40 -19 21 -11 39 18 39 11 0 22 8 25 20 6
24 26 26 43 4 8 -9 25 -14 44 -12 29 3 31 1 28 -25 -3 -27 -2 -28 20 -17 66
35 74 64 25 98 -43 29 -78 28 -132 -3 -43 -25 -43 -26 -50 -6 -4 14 -21 24
-48 31 -60 16 -97 33 -97 45 0 6 7 20 15 32 30 43 46 185 40 360 -6 160 -6
165 -38 228 -18 36 -36 63 -39 59 -4 -3 -14 8 -23 26 -20 39 -68 60 -135 60
l-52 0 30 25 c35 29 72 100 72 137 l0 25 36 -34 c20 -18 59 -46 88 -60 45 -23
62 -26 139 -24 96 2 224 34 305 75 54 28 122 87 122 105 0 8 7 11 15 7 9 -3
19 3 25 14 8 15 21 20 48 20 28 0 33 -3 22 -10 -8 -5 -12 -10 -7 -10 21 0 135
84 156 115 27 40 34 36 52 -29 18 -64 3 -112 -49 -162 -25 -24 -55 -47 -66
-50 -12 -4 -46 -29 -76 -56 -32 -28 -71 -53 -95 -59 -22 -6 -48 -15 -59 -21
-10 -5 -61 -14 -112 -19 -52 -4 -104 -15 -116 -23 -13 -7 -36 -17 -52 -20 -21
-5 -26 -10 -17 -16 8 -4 11 -12 8 -17 -4 -6 3 -28 14 -49 11 -21 23 -50 25
-63 3 -14 15 -34 27 -46 28 -27 50 -65 37 -65 -5 0 -7 -7 -3 -16 5 -12 19 -15
69 -12 35 2 64 0 64 -4 0 -5 7 -8 16 -8 8 0 12 -4 9 -10 -3 -5 -19 -10 -36
-10 -32 0 -39 -14 -11 -25 34 -13 162 -19 162 -6 0 6 -10 11 -22 11 -13 1 -36
7 -53 14 l-30 13 45 8 c25 4 49 7 54 6 14 -3 36 21 36 40 0 21 8 23 29 10 7
-5 10 -14 7 -20 -5 -8 10 -11 48 -11 30 0 57 4 60 8 11 19 -127 70 -212 79
-88 10 -76 27 14 19 77 -6 126 -19 171 -44 32 -18 39 -15 18 8 -25 28 -96 47
-204 55 -60 5 -91 11 -88 19 4 12 142 73 195 86 18 4 43 15 55 23 17 11 35 13
70 7 26 -4 49 -4 52 -1 2 4 -17 20 -41 35 -35 22 -62 30 -121 35 l-76 6 62 43
c34 23 68 47 74 53 23 19 150 99 158 99 12 0 11 -35 -2 -89 -8 -35 -7 -47 5
-60 29 -33 39 -101 32 -236 -6 -114 0 -178 19 -203 6 -7 83 34 130 70 60 47
66 62 11 28 -20 -12 -36 -19 -36 -16 0 3 14 35 32 71 20 41 38 65 49 65 17 0
37 45 58 125 6 23 24 54 40 69 25 24 28 31 18 47 -10 16 -7 24 20 51 18 18 35
29 38 26 3 -3 -1 -34 -9 -69 -14 -63 -14 -63 5 -39 10 14 19 31 19 38 0 6 4
12 9 12 5 0 12 12 15 26 5 18 19 31 46 41 44 18 57 40 36 61 -12 12 -16 11
-31 -12 -19 -28 -35 -34 -35 -13 0 8 12 20 26 27 19 10 24 20 20 36 -8 28 15
47 92 74 79 29 135 72 143 111 4 16 3 29 -2 29 -5 0 -37 -13 -71 -29 -35 -16
-81 -33 -102 -37 -38 -7 -39 -6 -32 17 4 13 10 47 15 74 4 28 13 61 20 74 33
60 64 302 41 316 -5 3 -10 -1 -10 -9 0 -32 -20 -25 -41 16 -24 48 -45 71 -66
74 -8 2 -21 11 -29 21 -24 31 -15 6 15 -46 17 -28 37 -74 46 -103 21 -71 31
-213 16 -222 -8 -5 -11 10 -11 52 l0 59 -105 104 c-88 86 -135 144 -135 166 0
8 37 2 48 -9 18 -18 14 3 -5 24 -9 10 -13 21 -8 26 4 4 10 1 12 -5 7 -18 23
-16 23 3 0 13 -7 15 -33 10 -30 -6 -35 -2 -76 49 l-43 56 10 57 c11 63 2 91
-40 127 -71 61 -115 61 -197 -1 -37 -27 -67 -60 -75 -79 -8 -18 -30 -44 -50
-57 -20 -14 -34 -27 -32 -29 3 -2 -11 -14 -30 -27 -33 -21 -34 -21 -34 -3 0
11 5 23 10 26 6 3 10 17 10 30 0 18 -7 25 -32 30 -22 5 -33 4 -36 -4 -3 -8
-10 -5 -19 8 -8 12 -22 21 -32 21 -14 0 -20 11 -25 48 -3 26 -7 52 -7 57 -1 6
7 15 18 20 11 6 18 16 15 23 -2 6 3 12 12 12 9 0 16 5 16 10 0 6 7 10 15 10 8
0 15 -7 15 -15 0 -13 4 -14 22 -4 21 11 21 13 4 19 -16 5 -15 8 10 26 16 10
36 22 44 26 10 5 8 7 -9 7 -22 1 -23 2 -9 19 9 9 18 24 21 32 3 9 6 10 6 3 1
-7 8 -13 16 -13 9 0 12 6 8 17 -4 10 -2 14 4 10 6 -4 15 13 23 41 7 26 14 55
17 65 2 9 14 17 26 17 18 0 19 2 7 10 -8 5 -16 22 -17 37 -4 50 -6 53 -26 53
-11 0 -18 2 -15 5 3 3 -9 20 -27 38 -17 18 -34 37 -36 43 -2 6 -20 15 -38 19
l-35 7 17 -25 c9 -15 17 -33 17 -40 0 -19 -42 -30 -51 -15 -10 16 -59 -9 -59
-30 0 -10 -7 -13 -22 -9 -12 4 -28 1 -36 -5 -9 -8 -56 -12 -133 -11 -66 0
-122 -3 -125 -8 -3 -5 -12 -9 -20 -9 -8 0 -24 -9 -36 -20 -12 -11 -28 -20 -35
-20 -8 0 -11 -5 -8 -10 4 -7 -2 -9 -19 -4 -19 4 -28 2 -32 -10 -4 -9 -23 -19
-45 -22 -21 -4 -36 -10 -33 -15 2 -4 12 -5 21 -2 11 4 14 3 9 -5 -11 -18 -44
-14 -48 5 -3 15 -4 15 -19 0 -15 -15 -18 -15 -34 3 -17 18 -17 20 -1 20 10 0
19 11 23 30 3 17 9 30 14 30 5 0 9 6 9 14 0 13 48 39 66 35 20 -3 34 1 34 12
0 7 -11 8 -30 4 -32 -7 -38 2 -17 25 7 8 1 7 -16 -4 -15 -9 -32 -14 -37 -11
-6 4 -22 -7 -36 -24 -30 -36 -59 -42 -49 -10 6 19 5 20 -16 8 -23 -12 -23 -12
-3 -28 20 -16 20 -16 -3 -41 -20 -22 -27 -46 -26 -88 1 -8 -5 -11 -13 -8 -8 3
-17 -1 -21 -9 -3 -10 -12 -13 -24 -10 -21 7 -92 -13 -85 -23 2 -4 -8 -16 -23
-27 l-26 -19 18 24 c9 14 22 36 28 50 6 14 18 33 26 42 9 10 12 18 8 18 -14 0
29 41 58 57 19 10 27 19 23 30 -4 9 1 21 11 28 16 12 16 14 -9 26 l-27 12 20
28 c11 15 25 26 32 23 7 -2 18 5 25 16 12 19 10 20 -41 20 -47 0 -60 -5 -114
-44z m287 -70 c0 -2 -9 -6 -20 -9 -11 -3 -18 -1 -14 4 5 9 34 13 34 5z m-10
-175 c0 -5 -7 -16 -15 -24 -8 -8 -12 -16 -10 -19 2 -2 -4 -4 -15 -4 -18 0 -18
2 -2 28 16 27 42 38 42 19z m-300 -102 c0 -5 -9 -9 -21 -9 -11 0 -18 -4 -14
-9 3 -6 -4 -15 -16 -21 -19 -11 -20 -10 -14 12 4 12 11 25 16 28 14 10 49 9
49 -1z m915 -360 c9 -27 0 -34 -27 -21 -13 6 -17 11 -10 11 6 1 12 8 12 16 0
22 18 18 25 -6z m145 -187 c0 -5 -8 -17 -19 -26 -17 -15 -19 -15 -25 -1 -10
28 -7 35 19 35 14 0 25 -4 25 -8z m-54 -60 c-4 -3 -12 0 -19 7 -9 9 -9 14 3
21 11 7 16 5 18 -6 2 -9 1 -18 -2 -22z m-1772 -30 c3 -5 -3 -21 -13 -36 -17
-25 -19 -26 -23 -8 -9 32 21 68 36 44z m2297 -72 c24 -21 39 -39 33 -40 -6 0
-31 18 -55 40 -24 21 -39 39 -33 40 6 0 31 -18 55 -40z m-41 -110 c0 -5 -2
-10 -4 -10 -3 0 -8 5 -11 10 -3 6 -1 10 4 10 6 0 11 -4 11 -10z m-776 -122
c-36 -71 -97 -147 -130 -163 -37 -17 -135 -17 -141 0 -1 6 14 18 35 28 20 10
84 56 142 102 58 46 106 80 108 75 2 -5 -4 -24 -14 -42z m407 9 c-8 -8 -11 -5
-11 9 0 27 14 41 18 19 2 -9 -1 -22 -7 -28z m-542 -4 c-6 -7 -15 -13 -18 -13
-4 0 -45 -25 -90 -55 -82 -53 -147 -83 -158 -71 -3 3 14 15 38 25 25 11 65 35
89 52 61 44 117 76 135 76 11 0 12 -4 4 -14z m271 -104 c-22 -41 -52 -99 -66
-129 -28 -60 -79 -120 -103 -120 -13 0 -13 -2 -2 -9 21 -13 -21 -38 -117 -68
-107 -33 -197 -30 -266 11 -46 27 -68 63 -46 76 15 9 139 1 162 -11 10 -5 19
-5 23 0 3 5 -3 11 -12 13 -10 2 17 11 60 21 42 11 75 22 72 27 -3 4 4 10 15
13 11 3 18 1 15 -3 -3 -4 4 -6 15 -3 11 3 17 10 14 15 -4 6 2 7 16 3 17 -5 21
-4 15 6 -6 9 -3 10 11 5 10 -4 15 -4 12 0 -10 9 20 36 32 29 6 -4 9 -3 8 2 -2
5 9 22 25 38 15 16 27 33 27 37 0 5 5 8 10 8 19 0 50 39 44 57 -4 13 -3 14 3
5 7 -9 17 -3 37 23 16 20 31 34 33 32 2 -3 -14 -38 -37 -78z m205 12 c-4 -14
-15 -37 -26 -53 -25 -34 -87 -83 -96 -75 -7 8 40 119 70 164 l21 31 19 -21
c12 -14 16 -29 12 -46z m655 1 c0 -4 -5 -13 -12 -20 -18 -18 -28 -15 -28 8 0
13 7 20 20 20 11 0 20 -4 20 -8z m-1415 -61 c-6 -5 -21 -12 -35 -15 -24 -7
-24 -6 -6 8 21 17 57 23 41 7z m195 -80 c25 -8 24 -8 -11 -23 -43 -19 -178
-48 -220 -48 -42 0 -40 35 4 49 75 25 182 35 227 22z m-280 -60 c0 -12 -20
-25 -27 -18 -7 7 6 27 18 27 5 0 9 -4 9 -9z m-90 -88 c0 -41 -39 -112 -71
-128 -16 -9 -55 -15 -89 -15 -69 0 -68 -2 -31 85 15 33 23 40 49 42 17 1 51
11 74 22 57 27 68 26 68 -6z m-855 -152 c-3 -6 -11 -11 -17 -11 -6 0 -6 6 2
15 14 17 26 13 15 -4z m30 -132 c9 -28 15 -52 12 -55 -8 -8 -47 62 -47 85 0
37 18 22 35 -30z m333 -44 c-3 -13 -2 -26 2 -27 4 -2 4 -28 0 -58 -6 -42 -4
-59 6 -70 12 -12 14 -12 14 5 0 18 2 18 19 -4 27 -36 14 -75 -26 -79 l-31 -3
-7 63 c-8 84 -3 178 10 178 5 0 3 5 -5 10 -13 8 -12 10 4 10 14 0 17 -6 14
-25z m338 6 c11 -10 30 -22 42 -25 33 -11 26 -26 -10 -27 -18 0 -52 -2 -75 -4
-34 -3 -45 0 -52 14 -7 12 -6 22 1 29 7 7 8 12 3 12 -6 0 -3 5 5 10 24 16 65
11 86 -9z m-552 -67 c9 -24 7 -28 -9 -14 -17 14 -20 30 -6 30 5 0 12 -7 15
-16z m614 -21 c-15 -2 -42 -2 -60 0 -18 2 -6 4 27 4 33 0 48 -2 33 -4z m112
-79 c0 -7 -52 -25 -57 -20 -3 2 0 14 7 25 9 17 15 19 30 11 11 -6 20 -13 20
-16z m614 0 c9 -23 8 -24 -13 -24 -25 0 -38 20 -20 31 20 12 26 11 33 -7z
m-644 -44 c-35 -11 -161 -11 -135 0 11 5 52 8 90 8 50 0 63 -2 45 -8z m30 -28
c0 -5 -15 -38 -34 -73 -18 -35 -40 -86 -49 -114 -23 -70 -39 -208 -32 -259 6
-38 3 -47 -23 -77 -16 -19 -32 -44 -36 -56 -6 -19 -11 -21 -26 -13 -20 10 -90
104 -90 120 0 6 -4 10 -9 10 -5 0 -14 15 -22 33 -7 17 -32 73 -56 122 -24 50
-43 96 -43 103 0 6 10 12 23 12 13 0 41 19 67 46 58 58 137 111 203 135 54 19
127 25 127 11z m-506 -158 c9 -3 16 -11 16 -16 0 -6 -7 -8 -15 -4 -8 3 -15 3
-15 0 0 -2 11 -9 24 -14 14 -5 26 -19 29 -37 6 -33 -9 -55 -23 -33 -10 15 -14
8 -11 -22 1 -9 -3 -19 -9 -23 -6 -4 -10 9 -10 37 0 28 -3 38 -9 29 -11 -18
-31 -5 -31 20 0 11 7 19 18 19 15 1 15 2 -2 15 -17 13 -18 15 -3 15 9 0 17 5
17 10 0 12 3 12 24 4z m736 -314 c0 -5 -2 -10 -4 -10 -3 0 -8 5 -11 10 -3 6
-1 10 4 10 6 0 11 -4 11 -10z"/>
<path d="M2448 2593 c7 -3 16 -2 19 1 4 3 -2 6 -13 5 -11 0 -14 -3 -6 -6z"/>
<path d="M2503 2583 c15 -2 39 -2 55 0 15 2 2 4 -28 4 -30 0 -43 -2 -27 -4z"/>
<path d="M1615 1800 c-3 -5 1 -10 10 -10 9 0 13 5 10 10 -3 6 -8 10 -10 10 -2
0 -7 -4 -10 -10z"/>
<path d="M2200 4280 c8 -5 20 -10 25 -10 6 0 3 5 -5 10 -8 5 -19 10 -25 10 -5
0 -3 -5 5 -10z"/>
<path d="M2250 4279 c0 -6 9 -8 21 -4 15 5 19 4 15 -4 -4 -6 -13 -11 -20 -11
-8 0 -16 -9 -19 -20 -5 -20 3 -26 17 -13 3 4 19 7 34 8 15 1 34 4 42 6 9 2 14
-2 12 -9 -1 -8 2 -11 8 -7 5 3 10 12 10 20 0 7 6 16 13 18 9 4 8 8 -3 16 -20
14 -130 14 -130 0z"/>
<path d="M2110 4210 c0 -4 9 -10 20 -13 11 -3 20 -2 20 3 0 4 -9 10 -20 13
-11 3 -20 2 -20 -3z"/>
<path d="M2310 4145 c-14 -16 -10 -18 14 -9 9 3 16 10 16 15 0 14 -16 11 -30
-6z"/>
<path d="M2458 2303 c7 -3 16 -2 19 1 4 3 -2 6 -13 5 -11 0 -14 -3 -6 -6z"/>
<path d="M3432 2065 c-18 -22 -19 -29 -7 -53 7 -15 16 -71 20 -125 9 -143 15
-153 48 -79 32 70 33 84 10 119 -11 16 -13 24 -5 19 11 -6 12 4 6 56 -10 91
-34 112 -72 63z m68 -96 c0 -5 -4 -9 -10 -9 -5 0 -10 7 -10 16 0 8 5 12 10 9
6 -3 10 -10 10 -16z"/>
<path d="M3285 1852 c0 -20 10 -56 23 -79 33 -62 30 -123 -8 -166 -34 -39 -36
-47 -14 -47 8 0 12 -4 9 -10 -13 -21 26 -9 56 18 28 25 31 34 38 109 6 77 5
84 -22 132 -16 27 -37 53 -48 56 -10 4 -19 11 -19 16 0 5 -3 9 -7 9 -5 0 -8
-17 -8 -38z"/>
<path d="M3255 1501 c-3 -5 -1 -12 5 -16 12 -7 30 2 30 16 0 12 -27 12 -35 0z"/>
<path d="M3200 1351 c0 -22 5 -43 10 -46 13 -8 13 -140 -1 -168 -10 -21 -9
-21 10 2 18 20 21 37 21 125 0 96 -8 126 -32 126 -4 0 -8 -18 -8 -39z"/>
<path d="M3145 1080 c-3 -5 -2 -10 4 -10 5 0 13 5 16 10 3 6 2 10 -4 10 -5 0
-13 -4 -16 -10z"/>
<path d="M2900 726 c-14 -12 -36 -35 -50 -51 -24 -28 -24 -28 18 4 23 18 47
42 53 52 12 24 10 24 -21 -5z"/>
<path d="M2760 325 c-7 -9 -11 -18 -8 -20 3 -3 11 1 18 10 7 9 11 18 8 20 -3
3 -11 -1 -18 -10z"/>
<path d="M3230 219 c0 -36 109 -187 121 -168 5 9 18 6 48 -14 22 -15 42 -23
45 -18 3 5 -3 11 -15 14 -11 3 -19 11 -17 19 5 21 -41 78 -57 71 -8 -3 -15 0
-15 7 0 6 -6 8 -12 4 -7 -4 -10 -4 -6 1 10 10 -11 37 -22 30 -5 -3 -17 8 -26
25 -18 30 -44 47 -44 29z"/>
<path d="M3291 184 c0 -11 3 -14 6 -6 3 7 2 16 -1 19 -3 4 -6 -2 -5 -13z"/>
</g>
</svg>
